<svg width="43" height="43" viewBox="0 0 43 43" fill="none" xmlns="http://www.w3.org/2000/svg">
<rect width="43" height="43" rx="8" fill="#ECFCEB"/>
<path d="M30.5 20.5511V15.6233C30.5 14.8483 29.9145 14.205 29.1551 14.073C26.095 13.5411 23.5546 12.3577 22.3152 11.7015C21.8077 11.4328 21.1923 11.4328 20.6848 11.7015C19.4454 12.3577 16.905 13.5411 13.8449 14.073C13.0855 14.205 12.5 14.8483 12.5 15.6233V20.5511C12.5 26.9795 19.0376 30.4859 20.9689 31.3815C21.3097 31.5395 21.6903 31.5395 22.0311 31.3815C23.9624 30.4859 30.5 26.9795 30.5 20.5511Z" stroke="#3BA334" stroke-width="2" stroke-linecap="round"/>
<path d="M30.5 20.5511V15.6233C30.5 14.8483 29.9145 14.205 29.1551 14.073C26.095 13.5411 23.5546 12.3577 22.3152 11.7015C21.8077 11.4328 21.1923 11.4328 20.6848 11.7015C19.4454 12.3577 16.905 13.5411 13.8449 14.073C13.0855 14.205 12.5 14.8483 12.5 15.6233V20.5511C12.5 26.9795 19.0376 30.4859 20.9689 31.3815C21.3097 31.5395 21.6903 31.5395 22.0311 31.3815C23.9624 30.4859 30.5 26.9795 30.5 20.5511Z" stroke="black" stroke-opacity="0.2" stroke-width="2" stroke-linecap="round"/>
</svg>
