<svg width="43" height="43" viewBox="0 0 43 43" fill="none" xmlns="http://www.w3.org/2000/svg">
<rect width="43" height="43" rx="8" fill="#ECFCEB"/>
<path fill-rule="evenodd" clip-rule="evenodd" d="M21.5 10.5C22.0523 10.5 22.5 10.9477 22.5 11.5V13.5C22.5 14.0523 22.0523 14.5 21.5 14.5C20.9477 14.5 20.5 14.0523 20.5 13.5V11.5C20.5 10.9477 20.9477 10.5 21.5 10.5ZM10.5 21.5C10.5 20.9477 10.9477 20.5 11.5 20.5H13.5C14.0523 20.5 14.5 20.9477 14.5 21.5C14.5 22.0523 14.0523 22.5 13.5 22.5H11.5C10.9477 22.5 10.5 22.0523 10.5 21.5ZM28.5 21.5C28.5 20.9477 28.9477 20.5 29.5 20.5H31.5C32.0523 20.5 32.5 20.9477 32.5 21.5C32.5 22.0523 32.0523 22.5 31.5 22.5H29.5C28.9477 22.5 28.5 22.0523 28.5 21.5ZM21.5 28.5C22.0523 28.5 22.5 28.9477 22.5 29.5V31.5C22.5 32.0523 22.0523 32.5 21.5 32.5C20.9477 32.5 20.5 32.0523 20.5 31.5V29.5C20.5 28.9477 20.9477 28.5 21.5 28.5Z" fill="#3BA334"/>
<path fill-rule="evenodd" clip-rule="evenodd" d="M21.5 10.5C22.0523 10.5 22.5 10.9477 22.5 11.5V13.5C22.5 14.0523 22.0523 14.5 21.5 14.5C20.9477 14.5 20.5 14.0523 20.5 13.5V11.5C20.5 10.9477 20.9477 10.5 21.5 10.5ZM10.5 21.5C10.5 20.9477 10.9477 20.5 11.5 20.5H13.5C14.0523 20.5 14.5 20.9477 14.5 21.5C14.5 22.0523 14.0523 22.5 13.5 22.5H11.5C10.9477 22.5 10.5 22.0523 10.5 21.5ZM28.5 21.5C28.5 20.9477 28.9477 20.5 29.5 20.5H31.5C32.0523 20.5 32.5 20.9477 32.5 21.5C32.5 22.0523 32.0523 22.5 31.5 22.5H29.5C28.9477 22.5 28.5 22.0523 28.5 21.5ZM21.5 28.5C22.0523 28.5 22.5 28.9477 22.5 29.5V31.5C22.5 32.0523 22.0523 32.5 21.5 32.5C20.9477 32.5 20.5 32.0523 20.5 31.5V29.5C20.5 28.9477 20.9477 28.5 21.5 28.5Z" fill="black" fill-opacity="0.2"/>
<path fill-rule="evenodd" clip-rule="evenodd" d="M21.5 14.5C17.634 14.5 14.5 17.634 14.5 21.5C14.5 25.366 17.634 28.5 21.5 28.5C25.366 28.5 28.5 25.366 28.5 21.5C28.5 17.634 25.366 14.5 21.5 14.5ZM12.5 21.5C12.5 16.5294 16.5294 12.5 21.5 12.5C26.4706 12.5 30.5 16.5294 30.5 21.5C30.5 26.4706 26.4706 30.5 21.5 30.5C16.5294 30.5 12.5 26.4706 12.5 21.5Z" fill="#3BA334"/>
<path fill-rule="evenodd" clip-rule="evenodd" d="M21.5 14.5C17.634 14.5 14.5 17.634 14.5 21.5C14.5 25.366 17.634 28.5 21.5 28.5C25.366 28.5 28.5 25.366 28.5 21.5C28.5 17.634 25.366 14.5 21.5 14.5ZM12.5 21.5C12.5 16.5294 16.5294 12.5 21.5 12.5C26.4706 12.5 30.5 16.5294 30.5 21.5C30.5 26.4706 26.4706 30.5 21.5 30.5C16.5294 30.5 12.5 26.4706 12.5 21.5Z" fill="black" fill-opacity="0.2"/>
<path fill-rule="evenodd" clip-rule="evenodd" d="M17.75 21.5C17.75 19.4289 19.4289 17.75 21.5 17.75C23.5711 17.75 25.25 19.4289 25.25 21.5C25.25 23.5711 23.5711 25.25 21.5 25.25C19.4289 25.25 17.75 23.5711 17.75 21.5Z" fill="#3BA334"/>
<path fill-rule="evenodd" clip-rule="evenodd" d="M17.75 21.5C17.75 19.4289 19.4289 17.75 21.5 17.75C23.5711 17.75 25.25 19.4289 25.25 21.5C25.25 23.5711 23.5711 25.25 21.5 25.25C19.4289 25.25 17.75 23.5711 17.75 21.5Z" fill="black" fill-opacity="0.2"/>
</svg>
